grf
version=1
nRows=37
nColumns=19
inDegrees=yes
endheader
time	ground_force_1_vx	ground_force_1_vy	ground_force_1_vz	ground_force_1_px	ground_force_1_py	ground_force_1_pz	ground_moment_1_mx	ground_moment_1_my	ground_moment_1_mz	ground_force_2_vx	ground_force_2_vy	ground_force_2_vz	ground_force_2_px	ground_force_2_py	ground_force_2_pz	ground_moment_2_mx	ground_moment_2_my	ground_moment_2_mz
0.000000	0.113119	439.835898	-47.664242	0.140305	0.000000	-1.054871	-0.000000	4.083482	0.000000	-8.541833	435.618159	54.502375	0.151259	0.000000	-1.399640	-0.000000	-3.728129	-0.000000
0.001000	0.077656	439.387239	-47.740672	0.138248	0.000000	-1.055606	-0.000000	4.101249	0.000000	-8.522097	435.798933	54.582235	0.150162	0.000000	-1.401790	-0.000000	-3.748394	-0.000000
0.002000	0.041299	438.958666	-47.814961	0.138471	0.000000	-1.053749	-0.000000	4.117732	0.000000	-8.501423	435.979764	54.661827	0.150824	0.000000	-1.399455	-0.000000	-3.768326	-0.000000
0.003000	0.004707	438.557109	-47.886306	0.135004	0.000000	-1.063331	-0.000000	4.132793	0.000000	-8.480082	436.161073	54.740297	0.151075	0.000000	-1.398921	-0.000000	-3.787640	-0.000000
0.004000	-0.031582	438.187459	-47.954057	0.138074	0.000000	-1.054147	-0.000000	4.146324	0.000000	-8.458125	436.343570	54.817010	0.150342	0.000000	-1.395723	-0.000000	-3.806146	-0.000000
0.005000	-0.067108	437.852620	-48.017710	0.137902	0.000000	-1.053368	-0.000000	4.158259	0.000000	-8.435482	436.527525	54.891535	0.150471	0.000000	-1.399914	-0.000000	-3.823727	-0.000000
0.006000	-0.101449	437.554294	-48.076889	0.138496	0.000000	-1.056061	-0.000000	4.168566	0.000000	-8.412082	436.712255	54.963597	0.150484	0.000000	-1.402889	-0.000000	-3.840326	-0.000000
0.007000	-0.134226	437.293445	-48.131329	0.138573	0.000000	-1.056025	-0.000000	4.177241	0.000000	-8.387860	436.896513	55.033037	0.151517	0.000000	-1.403449	0.000000	-3.855921	-0.000000
0.008000	-0.165101	437.070336	-48.180886	0.138615	0.000000	-1.055633	-0.000000	4.184314	0.000000	-8.362764	437.079006	55.099754	0.145252	0.000000	-1.393811	0.000000	-3.870522	-0.000000
0.009000	-0.193805	436.884511	-48.225521	0.139089	0.000000	-1.053606	-0.000000	4.189831	0.000000	-8.336825	437.258079	55.163591	0.151590	0.000000	-1.403081	0.000000	-3.884149	-0.000000
0.010000	-0.220168	436.734658	-48.265257	0.134357	0.000000	-1.065638	-0.000000	4.193847	0.000000	-8.310225	437.431339	55.224295	0.152006	0.000000	-1.400479	0.000000	-3.896826	-0.000000
0.011000	-0.244168	436.618354	-48.300111	0.139380	0.000000	-1.054356	-0.000000	4.196427	0.000000	-8.283297	437.596084	55.281545	0.152245	0.000000	-1.400692	0.000000	-3.908575	-0.000000
0.012000	-0.265946	436.532260	-48.330064	0.138448	0.000000	-1.057921	-0.000000	4.197668	0.000000	-8.256481	437.749867	55.334997	0.151605	0.000000	-1.401761	0.000000	-3.919403	-0.000000
0.013000	-0.285746	436.472712	-48.355083	0.137099	0.000000	-1.060198	-0.000000	4.197685	0.000000	-8.230294	437.890738	55.384292	0.151331	0.000000	-1.402240	0.000000	-3.929295	-0.000000
0.014000	-0.303778	436.435934	-48.375175	0.139576	0.000000	-1.050485	-0.000000	4.196602	0.000000	-8.205317	438.017139	55.429050	0.153189	0.000000	-1.395615	0.000000	-3.938216	-0.000000
0.015000	-0.320114	436.418280	-48.390404	0.140045	0.000000	-1.052415	-0.000000	4.194547	0.000000	-8.182198	438.127394	55.468942	0.150596	0.000000	-1.400472	0.000000	-3.946102	-0.000000
0.016000	-0.334724	436.416812	-48.400880	0.136005	0.000000	-1.050832	-0.000000	4.191647	0.000000	-8.161606	438.219238	55.503790	0.149362	0.000000	-1.399856	0.000000	-3.952885	-0.000000
0.017000	-0.347585	436.429344	-48.406744	0.139709	0.000000	-1.055231	-0.000000	4.188016	0.000000	-8.144176	438.289960	55.533600	0.152352	0.000000	-1.403890	0.000000	-3.958512	-0.000000
0.018000	-0.358740	436.453976	-48.408197	0.140242	0.000000	-1.051406	-0.000000	4.183751	0.000000	-8.130451	438.337105	55.558511	0.157195	0.000000	-1.405900	0.000000	-3.962966	-0.000000
0.019000	-0.368318	436.488782	-48.405571	0.140439	0.000000	-1.055439	-0.000000	4.178921	0.000000	-8.120806	438.359468	55.578743	0.155199	0.000000	-1.405156	0.000000	-3.966263	-0.000000
0.020000	-0.376522	436.531702	-48.399346	0.136740	0.000000	-1.060062	-0.000000	4.173572	0.000000	-8.115371	438.357793	55.594590	0.151745	0.000000	-1.403751	0.000000	-3.968446	-0.000000
0.021000	-0.383646	436.580521	-48.390077	0.138893	0.000000	-1.054020	-0.000000	4.167753	0.000000	-8.114075	438.334523	55.606423	0.150331	0.000000	-1.401408	0.000000	-3.969566	-0.000000
0.022000	-0.390071	436.632837	-48.378330	0.136992	0.000000	-1.054282	-0.000000	4.161534	0.000000	-8.116736	438.292818	55.614686	0.151291	0.000000	-1.401439	0.000000	-3.969678	-0.000000
0.023000	-0.396216	436.685906	-48.364670	0.139863	0.000000	-1.056384	-0.000000	4.155012	0.000000	-8.123095	438.235793	55.619858	0.151297	0.000000	-1.408098	0.000000	-3.968836	-0.000000
0.024000	-0.402504	436.736304	-48.349624	0.137853	0.000000	-1.058613	-0.000000	4.148296	0.000000	-8.132828	438.166454	55.622394	0.150999	0.000000	-1.404858	0.000000	-3.967100	-0.000000
0.025000	-0.409344	436.779815	-48.333659	0.140978	0.000000	-1.052964	-0.000000	4.141497	0.000000	-8.145554	438.088051	55.622708	0.152944	0.000000	-1.404965	0.000000	-3.964535	-0.000000
0.026000	-0.417109	436.812005	-48.317196	0.140812	0.000000	-1.054726	-0.000000	4.134744	0.000000	-8.160801	438.004223	55.621199	0.152657	0.000000	-1.400359	0.000000	-3.961234	-0.000000
0.027000	-0.426106	436.829106	-48.300622	0.138343	0.000000	-1.054785	-0.000000	4.128185	0.000000	-8.177981	437.918652	55.618263	0.148297	0.000000	-1.402537	0.000000	-3.957319	-0.000000
0.028000	-0.436571	436.828299	-48.284293	0.138497	0.000000	-1.054536	-0.000000	4.121975	0.000000	-8.196424	437.834383	55.614287	0.151266	0.000000	-1.394793	0.000000	-3.952944	-0.000000
0.029000	-0.448627	436.807556	-48.268519	0.145532	0.000000	-1.051586	-0.000000	4.116257	0.000000	-8.215438	437.753195	55.609621	0.151724	0.000000	-1.401941	0.000000	-3.948300	-0.000000
0.030000	-0.462213	436.765956	-48.253543	0.139460	0.000000	-1.054422	-0.000000	4.111150	0.000000	-8.234378	437.675614	55.604553	0.152616	0.000000	-1.400454	0.000000	-3.943590	-0.000000
0.031000	-0.477086	436.704229	-48.239540	0.137483	0.000000	-1.056340	-0.000000	4.106744	0.000000	-8.252700	437.601524	55.599306	0.150869	0.000000	-1.401637	0.000000	-3.938991	-0.000000
0.032000	-0.492911	436.624805	-48.226664	0.140511	0.000000	-1.060453	-0.000000	4.103114	0.000000	-8.269996	437.530598	55.594039	0.152409	0.000000	-1.401506	0.000000	-3.934640	-0.000000
0.033000	-0.509344	436.531255	-48.215065	0.141763	0.000000	-1.063644	-0.000000	4.100319	0.000000	-8.285982	437.462645	55.588857	0.151593	0.000000	-1.400873	0.000000	-3.930647	-0.000000
0.034000	-0.526074	436.427186	-48.204787	0.140199	0.000000	-1.055408	-0.000000	4.098392	0.000000	-8.300489	437.398034	55.583825	0.152388	0.000000	-1.402838	0.000000	-3.927092	-0.000000
0.035000	-0.542807	436.315499	-48.195723	0.138996	0.000000	-1.053290	-0.000000	4.097332	0.000000	-8.313414	437.337711	55.578966	0.151001	0.000000	-1.398497	0.000000	-3.924024	-0.000000
0.036000	-0.559267	436.198801	-48.187695	0.138295	0.000000	-1.055961	-0.000000	4.097114	0.000000	-8.324678	437.282542	55.574238	0.149539	0.000000	-1.400550	0.000000	-3.921456	-0.000000
